# xmcd
#
# Track frame offsets: 
#        182
#        10505
#        22850
#        33355
#        54832
#        70845
#        81852
#        97682
#        109070
#        122685
#        139477
#        159287
#        172965
#        186057
#        197957
#        212892
#        228012
#        245425
#        260192
#        273197
#        285225
#        296885
#        309575
#        327167
#
# Disc length: 4576 seconds
#
# Revision: 8
# Processed by: cddbd v1.5.2PL0 Copyright (c) Steve Scherf et al.
# Submitted via: ExactAudioCopyFreeDBPlugin 1.0
#
DISCID=4411de18
DTITLE=Aretha Franklin - Queen Of Soul [CD2]
DYEAR=1992
DGENRE=Soul
TTITLE0=Think
TTITLE1=See Saw
TTITLE2=The House That Jack Built
TTITLE3=Night Time Is the Right Time
TTITLE4=I Say a Little Prayer
TTITLE5=You Send Me
TTITLE6=My Song
TTITLE7=I Take What I Want
TTITLE8=I Can't See Myself Leaving You
TTITLE9=Night Life (Live Version)
TTITLE10=Today I Sing the Blues
TTITLE11=Pitiful
TTITLE12=Tracks of My Tears
TTITLE13=River's Invitation
TTITLE14=Share Your Love With Me
TTITLE15=It Ain't Fair
TTITLE16=Sit Down And Cry
TTITLE17=Honest I Do
TTITLE18=The Weight
TTITLE19=When the Battle Is Over
TTITLE20=Eleanor Rigby
TTITLE21=One Way Ticket
TTITLE22=Call Me
TTITLE23=Pullin'
EXTD=
EXTT0=
EXTT1=
EXTT2=
EXTT3=
EXTT4=
EXTT5=
EXTT6=
EXTT7=
EXTT8=
EXTT9=
EXTT10=
EXTT11=
EXTT12=
EXTT13=
EXTT14=
EXTT15=
EXTT16=
EXTT17=
EXTT18=
EXTT19=
EXTT20=
EXTT21=
EXTT22=
EXTT23=
PLAYORDER=
